<svg width="298" height="101" viewBox="0 0 298 101" fill="none" xmlns="http://www.w3.org/2000/svg">
<path d="M111.779 46.3991C114.691 45.7555 116.968 44.4408 118.653 42.4338C120.338 40.4268 121.15 37.9715 121.15 35.0647C121.15 31.5875 119.979 28.7752 117.637 26.6279C115.295 24.4806 112.19 23.409 108.324 23.413H90.2763V59.0572H99.0576V46.82H101.612L112.368 59.0572H122.963L111.779 46.3991ZM111.117 38.307C110.177 39.0909 108.926 39.4752 107.366 39.4752H99.0576V30.9164H107.366C108.926 30.9164 110.177 31.3008 111.117 32.0846C111.561 32.4726 111.917 32.9509 112.16 33.4875C112.404 34.024 112.53 34.6065 112.53 35.1958C112.53 35.7851 112.404 36.3676 112.16 36.9042C111.917 37.4408 111.561 37.9191 111.117 38.307Z" fill="#DFE04E"/>
<path d="M157.697 28.0432C154.022 24.4257 149.522 22.6159 144.197 22.6139C138.872 22.6119 134.372 24.4216 130.697 28.0432C127.035 31.6586 125.198 36.0732 125.188 41.287C125.188 46.4682 127.024 50.8574 130.697 54.4545C134.37 58.0517 138.87 59.8523 144.197 59.8564C149.524 59.8564 154.024 58.0558 157.697 54.4545C161.37 50.8533 163.202 46.4641 163.191 41.287C163.191 36.0773 161.36 31.6627 157.697 28.0432ZM151.489 48.8178C149.552 50.7441 146.93 51.8255 144.197 51.8255C141.464 51.8255 138.843 50.7441 136.905 48.8178C134.952 46.8108 133.974 44.3005 133.972 41.287C133.972 38.2368 134.95 35.7011 136.905 33.6799C138.861 31.6586 141.292 30.649 144.197 30.6511C145.557 30.6175 146.909 30.8697 148.165 31.3915C149.421 31.9132 150.554 32.6929 151.489 33.6799C153.443 35.7133 154.42 38.249 154.422 41.287C154.422 44.3005 153.445 46.8108 151.489 48.8178Z" fill="#DFE04E"/>
<path d="M190.027 23.413L181.349 39.0573L172.568 23.413H162.981L176.774 47.9943V59.0572H185.717V47.8906L199.824 23.413H190.027Z" fill="#DFE04E"/>
<path d="M218.77 23.413H209.769L194.865 59.0572H204.29L206.79 52.5665H221.807L224.307 59.0572H233.677L218.77 23.413ZM209.769 45.0143L214.298 33.3078L218.877 45.0143H209.769Z" fill="#DFE04E"/>
<path d="M246.075 51.4013V23.413H237.288V59.0572H263.641V51.4013H246.075Z" fill="#DFE04E"/>
<path d="M105.574 63.3671L99.5093 74.5764L93.4689 63.3671H91.3873V78.1787H93.6918V68.7171L98.7829 78.1787H100.239L105.33 68.7171V78.1787H107.628V63.3671H105.574Z" fill="#212121"/>
<path d="M123.875 65.3101C122.607 64.023 120.931 63.2158 119.134 63.0261C117.337 62.8363 115.529 63.2759 114.02 64.2698C112.511 65.2637 111.393 66.7502 110.859 68.4756C110.324 70.201 110.406 72.0584 111.089 73.7305C111.772 75.4027 113.015 76.7861 114.605 77.6444C116.196 78.5028 118.035 78.783 119.809 78.4371C121.583 78.0913 123.182 77.1408 124.332 75.7481C125.483 74.3553 126.115 72.6066 126.119 70.8003C126.14 69.7806 125.952 68.7672 125.566 67.8229C125.181 66.8786 124.605 66.0233 123.875 65.3101ZM122.181 74.6863C121.172 75.69 119.807 76.2535 118.383 76.2535C116.959 76.2535 115.593 75.69 114.584 74.6863C114.078 74.1752 113.68 73.5668 113.415 72.8979C113.15 72.229 113.024 71.5134 113.043 70.7943C113.023 70.0705 113.15 69.3502 113.414 68.6763C113.679 68.0024 114.077 67.3887 114.584 66.8717C115.082 66.3711 115.674 65.9737 116.326 65.7026C116.978 65.4314 117.677 65.2918 118.383 65.2918C119.089 65.2918 119.788 65.4314 120.44 65.7026C121.092 65.9737 121.684 66.3711 122.181 66.8717C122.691 67.3877 123.09 68.0011 123.357 68.675C123.623 69.349 123.751 70.0698 123.732 70.7943C123.75 71.5141 123.622 72.2301 123.356 72.8991C123.089 73.5681 122.69 74.1761 122.181 74.6863Z" fill="#212121"/>
<path d="M140.074 63.3671V74.1769L131.14 63.3671H129.122V78.1787H131.491V67.5489L140.452 78.1787H142.467V63.3671H140.074Z" fill="#212121"/>
<path d="M148.547 76.0375V71.8099H156.531V69.687H148.547V65.5144H157.194V63.3671H146.178V78.1787H157.218V76.0375H148.547Z" fill="#212121"/>
<path d="M170.752 63.3671L166.216 70.7942L161.659 63.3671H159.025L165.023 73.271V78.1787H167.391V73.2252L173.477 63.3671H170.752Z" fill="#212121"/>
<path d="M179.973 63.3671V65.5144H185.174V78.1787H187.561V65.5144H192.78V63.3671H179.973Z" fill="#212121"/>
<path d="M202.645 72.2553C204.069 72.1821 205.202 71.7429 206.042 70.9376C206.457 70.5161 206.784 70.0157 207.002 69.466C207.221 68.9163 207.327 68.3285 207.314 67.7371C207.302 67.1458 207.171 66.5629 206.929 66.023C206.688 65.483 206.34 64.9969 205.908 64.5933C204.974 63.7799 203.746 63.3732 202.224 63.3732H195.255V78.1848H197.624V72.2888H199.76L205.044 78.1909H207.986L202.645 72.2553ZM197.624 70.1202V65.5144H202.224C202.937 65.4801 203.638 65.7067 204.195 66.1519C204.44 66.3575 204.634 66.6159 204.764 66.9075C204.894 67.1991 204.957 67.5165 204.946 67.8356C204.957 68.1525 204.894 68.4676 204.764 68.7567C204.634 69.0459 204.439 69.3015 204.195 69.504C203.634 69.941 202.935 70.1638 202.224 70.1324L197.624 70.1202Z" fill="#212121"/>
<path d="M217.729 63.3671H215.519L208.99 78.1787H211.557L213.019 74.729H220.229L221.691 78.1787H224.258L217.729 63.3671ZM213.944 72.5633L216.624 66.2617L219.304 72.5633H213.944Z" fill="#212121"/>
<path d="M237.285 63.3671V74.1769L228.345 63.3671H226.33V78.1787H228.699V67.5489L237.657 78.1787H239.675V63.3671H237.285Z" fill="#212121"/>
<path d="M250.705 69.9097L247.501 69.2387C246.974 69.1627 246.48 68.9396 246.075 68.5951C245.919 68.4345 245.797 68.2431 245.719 68.033C245.641 67.8229 245.607 67.5988 245.62 67.375C245.615 67.0608 245.684 66.7498 245.823 66.4677C245.961 66.1855 246.165 65.9404 246.417 65.7523C247.024 65.3083 247.766 65.0864 248.517 65.124C249.329 65.1 250.126 65.3528 250.776 65.8408C251.384 66.2992 251.788 66.9785 251.899 67.7319L254.27 67.2469C254.039 66.0203 253.347 64.9288 252.335 64.1967C251.235 63.4192 249.91 63.0228 248.563 63.0682C246.935 63.0682 245.618 63.4688 244.613 64.27C244.133 64.6447 243.747 65.127 243.487 65.678C243.227 66.229 243.101 66.8333 243.118 67.4421C243.118 69.5488 244.364 70.8908 246.857 71.4683L250.086 72.1302C250.672 72.2167 251.225 72.4543 251.691 72.8196C251.858 72.9864 251.987 73.1871 252.069 73.4082C252.151 73.6293 252.185 73.8654 252.167 74.1006C252.175 74.4249 252.104 74.7462 251.96 75.0368C251.816 75.3275 251.603 75.5788 251.34 75.7691C250.667 76.2235 249.862 76.4443 249.051 76.3974C248.148 76.4306 247.258 76.1799 246.506 75.6806C246.162 75.4311 245.872 75.1156 245.652 74.7527C245.432 74.3898 245.286 73.9866 245.224 73.5668L242.702 74.1006C242.77 74.7519 242.981 75.3802 243.321 75.9399C243.661 76.4996 244.121 76.9767 244.668 77.3368C245.903 78.1413 247.355 78.546 248.828 78.4959C250.54 78.4959 251.915 78.0892 252.955 77.2758C253.459 76.8883 253.864 76.3862 254.135 75.8112C254.406 75.2362 254.536 74.6048 254.515 73.9695C254.515 71.8323 253.245 70.4831 250.705 69.9219" fill="#212121"/>
<path d="M268.47 65.5144V63.3671H257.628V78.1787H259.996V72.057H267.652V69.9097H259.996V65.5144H268.47Z" fill="#212121"/>
<path d="M273.332 76.0375V71.8099H281.319V69.687H273.332V65.5144H281.985V63.3671H270.963V78.1787H282.009V76.0375H273.332Z" fill="#212121"/>
<path d="M292.646 72.2553C294.063 72.1821 295.192 71.7429 296.044 70.9376C296.458 70.5155 296.783 70.0149 297.001 69.4653C297.219 68.9157 297.324 68.3282 297.312 67.7372C297.299 67.1462 297.169 66.5637 296.928 66.0238C296.687 65.4839 296.341 64.9975 295.909 64.5933C294.971 63.7799 293.743 63.3732 292.225 63.3732H285.257V78.1848H287.622V72.2888H289.759L295.048 78.1909H297.991L292.646 72.2553ZM287.622 70.1202V65.5144H292.225C292.936 65.4807 293.635 65.7074 294.191 66.1519C294.436 66.3569 294.632 66.6151 294.762 66.9068C294.893 67.1985 294.955 67.5162 294.945 67.8356C294.955 68.1528 294.893 68.4682 294.762 68.7574C294.631 69.0467 294.436 69.3021 294.191 69.504C293.631 69.9406 292.934 70.1634 292.225 70.1324L287.622 70.1202Z" fill="#212121"/>
<g style="mix-blend-mode:multiply">
<mask id="mask0_74_500" style="mask-type:luminance" maskUnits="userSpaceOnUse" x="0" y="0" width="79" height="79">
<path d="M78.5404 0H0V78.4868H78.5404V0Z" fill="white"/>
</mask>
<g mask="url(#mask0_74_500)">
<path d="M78.5404 78.4868H3.58028C2.63126 78.4868 1.72107 78.1102 1.04972 77.4399C0.378374 76.7696 0.000809055 75.8603 0 74.912L0 3.15387C0 2.31741 0.332509 1.51521 0.924378 0.923746C1.51625 0.332281 2.31899 0 3.15602 0L74.9632 0C75.9122 0.000808503 76.8221 0.378115 77.4928 1.049C78.1636 1.71989 78.5404 2.62947 78.5404 3.57784V78.4868Z" fill="#212121"/>
</g>
</g>
<mask id="mask1_74_500" style="mask-type:luminance" maskUnits="userSpaceOnUse" x="0" y="0" width="79" height="79">
<path d="M1.90155 0C1.39723 0 0.913561 0.200204 0.556951 0.55657C0.200341 0.912937 0 1.39627 0 1.90025L0 76.5896C-3.22539e-07 76.839 0.0492067 77.0859 0.144806 77.3163C0.240405 77.5467 0.38052 77.7559 0.557136 77.9322C0.733751 78.1084 0.9434 78.248 1.17409 78.3432C1.40478 78.4384 1.65198 78.4872 1.90155 78.4868H78.5404V1.90025C78.5408 1.65085 78.492 1.40382 78.3968 1.17329C78.3015 0.942755 78.1618 0.73325 77.9854 0.556755C77.8091 0.380261 77.5997 0.240241 77.3691 0.144707C77.1386 0.0491731 76.8915 -3.22318e-07 76.6419 0L1.90155 0Z" fill="white"/>
</mask>
<g mask="url(#mask1_74_500)">
<path d="M73.4676 82.9644C73.4623 84.7601 72.925 86.5141 71.9236 88.0051C70.9221 89.4961 69.5012 90.6574 67.8402 91.3425C66.1791 92.0276 64.3523 92.2058 62.59 91.8547C60.8277 91.5037 59.2089 90.639 57.9377 89.3697L50.3071 81.7443L39.7708 71.2121L52.636 58.3557L63.1815 68.894L70.8121 76.5194C71.6587 77.3652 72.3292 78.3703 72.7849 79.4765C73.2407 80.5827 73.4727 81.7681 73.4676 82.9644Z" fill="#B0B040"/>
<path d="M31.1787 2.65973C30.3334 3.5036 29.6629 4.50568 29.2054 5.60867C28.7479 6.71167 28.5124 7.89396 28.5124 9.08795C28.5124 10.2819 28.7479 11.4642 29.2054 12.5672C29.6629 13.6702 30.3334 14.6723 31.1787 15.5162L33.8433 18.179L33.886 18.2217C31.6305 18.4315 29.5346 19.4754 28.0091 21.1488C26.4835 22.8223 25.6382 25.0047 25.6389 27.2684V34.4668C25.661 35.6747 25.4421 36.8748 24.9948 37.9972C24.5476 39.1195 23.881 40.1416 23.0341 41.0036C22.1871 41.8656 21.1768 42.5503 20.062 43.0177C18.9473 43.4851 17.7505 43.7259 16.5416 43.7259C15.3328 43.7259 14.136 43.4851 13.0213 43.0177C11.9065 42.5503 10.8962 41.8656 10.0492 41.0036C9.20226 40.1416 8.5357 39.1195 8.08847 37.9972C7.64123 36.8748 7.42229 35.6747 7.44443 34.4668V9.08642C7.44483 7.89201 7.6808 6.70938 8.13884 5.60615C8.59688 4.50292 9.26802 3.50072 10.1139 2.65685C10.9598 1.81297 11.9638 1.14397 13.0685 0.688092C14.1733 0.232212 15.3571 -0.00161038 16.5523 -7.069e-06H37.6128C36.8931 -7.28505e-05 36.176 0.0849049 35.4763 0.253156C33.8563 0.644417 32.377 1.47757 31.2031 2.65973" fill="#DFE04E"/>
<g style="mix-blend-mode:multiply" opacity="0.24">
<mask id="mask2_74_500" style="mask-type:luminance" maskUnits="userSpaceOnUse" x="39" y="58" width="31" height="31">
<path d="M69.5363 58.3618H39.7647V88.1192H69.5363V58.3618Z" fill="white"/>
</mask>
<g mask="url(#mask2_74_500)">
<mask id="mask3_74_500" style="mask-type:luminance" maskUnits="userSpaceOnUse" x="39" y="58" width="31" height="31">
<path d="M52.6306 58.3617L39.7652 71.2183L56.6752 88.1168L69.5406 75.2602L52.6306 58.3617Z" fill="white"/>
</mask>
<g mask="url(#mask3_74_500)">
<path d="M62.0934 45.4773L26.8711 65.799L47.2082 101L82.4305 80.6782L62.0934 45.4773Z" fill="url(#paint0_linear_74_500)"/>
</g>
</g>
</g>
<g style="mix-blend-mode:multiply" opacity="0.24">
<mask id="mask4_74_500" style="mask-type:luminance" maskUnits="userSpaceOnUse" x="7" y="0" width="29" height="44">
<path d="M35.461 0H7.45663V43.5472H35.461V0Z" fill="white"/>
</mask>
<g mask="url(#mask4_74_500)">
<mask id="mask5_74_500" style="mask-type:luminance" maskUnits="userSpaceOnUse" x="7" y="0" width="29" height="44">
<path d="M31.1787 2.65974C30.3334 3.50361 29.6629 4.50568 29.2054 5.60868C28.7479 6.71167 28.5124 7.89396 28.5124 9.08796C28.5124 10.282 28.7479 11.4642 29.2054 12.5672C29.6629 13.6702 30.3334 14.6723 31.1787 15.5162L33.8433 18.179L33.886 18.2217C31.6305 18.4315 29.5346 19.4754 28.0091 21.1488C26.4835 22.8223 25.6382 25.0047 25.6389 27.2684V34.4668C25.661 35.6747 25.4421 36.8748 24.9948 37.9972C24.5476 39.1195 23.881 40.1416 23.0341 41.0036C22.1871 41.8656 21.1768 42.5503 20.062 43.0177C18.9473 43.4851 17.7505 43.7259 16.5416 43.7259C15.3328 43.7259 14.136 43.4851 13.0213 43.0177C11.9065 42.5503 10.8962 41.8656 10.0492 41.0036C9.20226 40.1416 8.5357 39.1195 8.08847 37.9972C7.64123 36.8748 7.42229 35.6747 7.44443 34.4668V9.08643C7.44483 7.89201 7.6808 6.70939 8.13884 5.60615C8.59688 4.50292 9.26802 3.50073 10.1139 2.65685C10.9598 1.81298 11.9638 1.14398 13.0685 0.6881C14.1733 0.232219 15.3571 -0.00160275 16.5523 5.6039e-07H35.4763V0.253164C33.8563 0.644425 32.377 1.47758 31.2031 2.65974" fill="white"/>
</mask>
<g mask="url(#mask5_74_500)">
<path d="M35.461 0H7.45663V43.5472H35.461V0Z" fill="url(#paint1_linear_74_500)"/>
</g>
</g>
</g>
<path d="M69.7683 41.229L22.9895 87.9758C21.2835 89.6807 18.9696 90.6385 16.5569 90.6385C14.1442 90.6385 11.8303 89.6807 10.1243 87.9758C8.41826 86.2709 7.45982 83.9586 7.45982 81.5476C7.45982 79.1366 8.41826 76.8242 10.1243 75.1194L44.0439 41.229C45.7488 39.5235 46.7064 37.2115 46.7064 34.8008C46.7064 32.3902 45.7488 30.0781 44.0439 28.3726L33.8799 18.2217L33.8372 18.179L31.1726 15.5162C29.4666 13.8105 28.5084 11.4974 28.509 9.0858C28.5096 6.67418 29.4688 4.36156 31.1756 2.65669C32.8825 0.951819 35.1971 -0.00564528 37.6104 -0.00507329C40.0237 -0.00450131 42.3379 0.95406 44.0439 2.65974L59.5707 18.179L69.7683 28.3665C70.6135 29.2104 71.2841 30.2124 71.7416 31.3154C72.1991 32.4184 72.4346 33.6007 72.4346 34.7947C72.4346 35.9887 72.1991 37.171 71.7416 38.274C71.2841 39.377 70.6135 40.3791 69.7683 41.2229" fill="#DFE04E"/>
</g>
<defs>
<linearGradient id="paint0_linear_74_500" x1="62.2018" y1="85.9033" x2="48.3115" y2="61.8282" gradientUnits="userSpaceOnUse">
<stop stop-color="white"/>
<stop offset="0.03" stop-color="#F4F4F5"/>
<stop offset="1"/>
</linearGradient>
<linearGradient id="paint1_linear_74_500" x1="8.30897" y1="21.6577" x2="36.3133" y2="21.6577" gradientUnits="userSpaceOnUse">
<stop stop-color="white"/>
<stop offset="0.2" stop-color="#D0D0D0"/>
<stop offset="0.66" stop-color="#5C5C5C"/>
<stop offset="1"/>
</linearGradient>
</defs>
</svg>
